<svg xmlns="http://www.w3.org/2000/svg" version="1.1" xmlns:xlink="http://www.w3.org/1999/xlink" xmlns:svgjs="http://svgjs.dev/svgjs" width="1000" height="623" viewBox="0 0 1000 623"><g transform="matrix(1,0,0,1,-0.6060606060606233,0.2522267206477409)"><svg viewBox="0 0 396 247" data-background-color="#ffffff" preserveAspectRatio="xMidYMid meet" height="623" width="1000" xmlns="http://www.w3.org/2000/svg" xmlns:xlink="http://www.w3.org/1999/xlink"><g id="tight-bounds" transform="matrix(1,0,0,1,0.2400000000000091,-0.09999999999999432)"><svg viewBox="0 0 395.52 247.2" height="247.2" width="395.52"><g><svg></svg></g><g><svg viewBox="0 0 395.52 247.2" height="247.2" width="395.52"><g transform="matrix(1,0,0,1,144.0487883905013,47.215199999999996)"><svg viewBox="0 0 107.42242321899738 152.7696" height="152.7696" width="107.42242321899738"><g><svg viewBox="0 0 107.42242321899738 152.7696" height="152.7696" width="107.42242321899738"><g><svg viewBox="0 0 107.42242321899738 152.7696" height="152.7696" width="107.42242321899738"><g><svg viewBox="0 0 107.42242321899738 152.7696" height="152.7696" width="107.42242321899738"><g id="textblocktransform"><svg viewBox="0 0 107.42242321899738 152.7696" height="152.7696" width="107.42242321899738" id="textblock"><g><svg viewBox="0 0 107.42242321899738 152.7696" height="152.7696" width="107.42242321899738"><g transform="matrix(1,0,0,1,0,0)"><svg width="107.42242321899738" viewBox="5.349999904632568 -37.900001525878906 26.649999618530273 37.900001525878906" height="152.7696" data-palette-color="#ee3e38"><path d="M25.2-19.25Q32-17.05 32-10.25L32-10.25Q32-5.05 28.88-2.53 25.75 0 18.45 0L18.45 0 5.35 0 5.35-37.9 18.45-37.9Q25.1-37.9 27.8-35.4 30.5-32.9 30.5-27.75L30.5-27.75Q30.5-24.7 29.23-22.58 27.95-20.45 25.2-19.25L25.2-19.25ZM10.2-33.8L10.2-21.05 18.45-21.05Q25.5-21.05 25.55-27.4L25.55-27.4Q25.55-30.9 24-32.35 22.45-33.8 18.45-33.8L18.45-33.8 10.2-33.8ZM27.05-10.55Q27.05-13.9 24.88-15.43 22.7-16.95 18.45-16.95L18.45-16.95 10.2-16.95 10.2-4.1 18.45-4.1Q23.15-4.1 25.1-5.65 27.05-7.2 27.05-10.55L27.05-10.55Z" opacity="1" transform="matrix(1,0,0,1,0,0)" fill="#ee3e38" class="undefined-text-0" data-fill-palette-color="primary" id="text-0"></path></svg></g></svg></g></svg></g></svg></g></svg></g></svg></g></svg></g><path d="M69.17 41.215L69.17 0 316.37 0 316.37 247.2 69.17 247.2 69.17 205.985 82.947 205.985 82.947 233.423 302.593 233.423 302.593 13.777 82.947 13.777 82.947 41.215Z" fill="#ee3e38" stroke="transparent" data-fill-palette-color="primary"></path></svg></g><defs></defs></svg><rect width="395.52" height="247.2" fill="none" stroke="none" visibility="hidden"></rect></g></svg></g></svg>